<svg width="50" height="50" viewBox="0 0 50 50" fill="none" xmlns="http://www.w3.org/2000/svg">
<g clip-path="url(#clip0_1_224)">
<path fill-rule="evenodd" clip-rule="evenodd" d="M45.3906 14.7949L43.7565 16.4289C40.2161 13.343 35.6765 11.617 30.9565 11.617C27.7787 11.617 24.6025 12.434 21.8791 13.8859L28.7778 6.98722C29.3225 7.34977 29.9574 7.5319 30.594 7.5319C31.5012 7.5319 32.4102 7.16935 33.1353 6.44254C34.5872 4.99063 34.5872 2.71999 33.1353 1.26807C32.4085 0.541264 31.5012 0.178711 30.594 0.178711C29.6868 0.178711 28.7778 0.541264 28.0527 1.26807C26.8731 2.53956 26.691 4.35403 27.508 5.71573L18.7931 14.4306L17.1591 12.7966L12.7114 17.2442L14.3455 18.8783L5.44846 27.7753C4.90378 27.4128 4.26888 27.2306 3.63229 27.2306C2.72505 27.2306 1.81612 27.5932 1.09101 28.32C-0.360904 29.7719 -0.360904 32.0425 1.09101 33.4945C1.81782 34.1294 2.72505 34.4936 3.63229 34.4936C4.53952 34.4936 5.44846 34.1311 6.17356 33.4042C7.35314 32.2247 7.53527 30.4085 6.71825 28.9566L13.617 22.0579C9.98633 29.0485 10.8034 37.7634 16.1582 43.9353L14.5242 45.6596L19.0638 50.1072L23.5114 45.6596L19.0638 41.2119L17.5199 42.7557C12.2553 36.5821 11.9829 27.6868 16.4306 21.1506L17.1574 21.8774L21.697 17.4298L20.8799 16.703C23.7855 14.6145 27.3259 13.5251 30.9565 13.5251C35.2238 13.5251 39.217 15.0689 42.4851 17.7923L40.851 19.3362L45.3906 23.7838L49.8382 19.3362L45.3906 14.7966V14.7949ZM20.9702 45.6596L19.0638 47.5659L17.1574 45.6596L19.0638 43.7532L20.9702 45.6596ZM29.3225 2.62977C29.6851 2.26722 30.1395 2.08509 30.594 2.08509C31.0485 2.08509 31.5012 2.26722 31.8655 2.62977C32.5923 3.35658 32.5923 4.44595 31.8655 5.17105C31.5029 5.5336 31.0485 5.71573 30.594 5.71573C30.1395 5.71573 29.6868 5.5336 29.3225 5.17105C28.5957 4.53616 28.5957 3.35488 29.3225 2.62977ZM4.90208 32.1328C4.53952 32.4953 4.08505 32.6774 3.63059 32.6774C3.17612 32.6774 2.72335 32.4953 2.3591 32.1328C1.99654 31.8604 1.81442 31.4059 1.81442 30.8613C1.81442 30.4068 1.99654 29.954 2.3591 29.5898C2.72165 29.2255 3.17612 29.0451 3.63059 29.0451C4.08505 29.0451 4.53782 29.2272 4.90208 29.5898C5.62888 30.3166 5.62888 31.4962 4.90208 32.1311V32.1328ZM17.0672 19.3328L15.1608 17.4264L17.0672 15.52L18.9736 17.4264L17.0672 19.3328ZM45.3906 21.2391L43.4842 19.3328L45.3906 17.4264L47.297 19.3328L45.3906 21.2391Z" fill="#333333"/>
</g>
<defs>
<clipPath id="clip0_1_224">
<rect width="50" height="50" fill="white"/>
</clipPath>
</defs>
</svg>
